<mxfile host="app.diagrams.net" modified="2023-06-12T19:07:31.028Z" agent="Mozilla/5.0 (X11; Ubuntu; Linux x86_64; rv:109.0) Gecko/20100101 Firefox/110.0" etag="wMs3fJ4ukGYybjK2HA-r" version="21.3.8" type="google">
  <diagram name="Page-1" id="2YBvvXClWsGukQMizWep">
    <mxGraphModel grid="1" page="1" gridSize="10" guides="1" tooltips="1" connect="1" arrows="1" fold="1" pageScale="1" pageWidth="850" pageHeight="1100" math="0" shadow="0">
      <root>
        <mxCell id="0" />
        <mxCell id="1" parent="0" />
        <mxCell id="aM9ryv3xv72pqoxQDRHE-1" value=":Usuario" style="shape=umlLifeline;perimeter=lifelinePerimeter;whiteSpace=wrap;html=1;container=0;dropTarget=0;collapsible=0;recursiveResize=0;outlineConnect=0;portConstraint=eastwest;newEdgeStyle={&quot;edgeStyle&quot;:&quot;elbowEdgeStyle&quot;,&quot;elbow&quot;:&quot;vertical&quot;,&quot;curved&quot;:0,&quot;rounded&quot;:0};" vertex="1" parent="1">
          <mxGeometry x="40" y="40" width="100" height="410" as="geometry" />
        </mxCell>
        <mxCell id="aM9ryv3xv72pqoxQDRHE-2" value="" style="html=1;points=[];perimeter=orthogonalPerimeter;outlineConnect=0;targetShapes=umlLifeline;portConstraint=eastwest;newEdgeStyle={&quot;edgeStyle&quot;:&quot;elbowEdgeStyle&quot;,&quot;elbow&quot;:&quot;vertical&quot;,&quot;curved&quot;:0,&quot;rounded&quot;:0};" vertex="1" parent="aM9ryv3xv72pqoxQDRHE-1">
          <mxGeometry x="45" y="70" width="10" height="340" as="geometry" />
        </mxCell>
        <mxCell id="aM9ryv3xv72pqoxQDRHE-5" value=":UI Feed" style="shape=umlLifeline;perimeter=lifelinePerimeter;whiteSpace=wrap;html=1;container=0;dropTarget=0;collapsible=0;recursiveResize=0;outlineConnect=0;portConstraint=eastwest;newEdgeStyle={&quot;edgeStyle&quot;:&quot;elbowEdgeStyle&quot;,&quot;elbow&quot;:&quot;vertical&quot;,&quot;curved&quot;:0,&quot;rounded&quot;:0};" vertex="1" parent="1">
          <mxGeometry x="220" y="40" width="100" height="400" as="geometry" />
        </mxCell>
        <mxCell id="aM9ryv3xv72pqoxQDRHE-6" value="" style="html=1;points=[];perimeter=orthogonalPerimeter;outlineConnect=0;targetShapes=umlLifeline;portConstraint=eastwest;newEdgeStyle={&quot;edgeStyle&quot;:&quot;elbowEdgeStyle&quot;,&quot;elbow&quot;:&quot;vertical&quot;,&quot;curved&quot;:0,&quot;rounded&quot;:0};" vertex="1" parent="aM9ryv3xv72pqoxQDRHE-5">
          <mxGeometry x="45" y="80" width="10" height="320" as="geometry" />
        </mxCell>
        <mxCell id="aM9ryv3xv72pqoxQDRHE-7" value="Ingresar()" style="html=1;verticalAlign=bottom;endArrow=block;edgeStyle=elbowEdgeStyle;elbow=vertical;curved=0;rounded=0;" edge="1" parent="1" source="aM9ryv3xv72pqoxQDRHE-2" target="aM9ryv3xv72pqoxQDRHE-6">
          <mxGeometry relative="1" as="geometry">
            <mxPoint x="195" y="130" as="sourcePoint" />
            <Array as="points">
              <mxPoint x="180" y="120" />
            </Array>
            <mxPoint as="offset" />
          </mxGeometry>
        </mxCell>
        <mxCell id="o_1Lcf5PRjtZEdGYq-Mj-3" value=":Control_Usuario" style="shape=umlLifeline;perimeter=lifelinePerimeter;whiteSpace=wrap;html=1;container=0;dropTarget=0;collapsible=0;recursiveResize=0;outlineConnect=0;portConstraint=eastwest;newEdgeStyle={&quot;edgeStyle&quot;:&quot;elbowEdgeStyle&quot;,&quot;elbow&quot;:&quot;vertical&quot;,&quot;curved&quot;:0,&quot;rounded&quot;:0};" vertex="1" parent="1">
          <mxGeometry x="590" y="40" width="100" height="390" as="geometry" />
        </mxCell>
        <mxCell id="o_1Lcf5PRjtZEdGYq-Mj-4" value="" style="html=1;points=[];perimeter=orthogonalPerimeter;outlineConnect=0;targetShapes=umlLifeline;portConstraint=eastwest;newEdgeStyle={&quot;edgeStyle&quot;:&quot;elbowEdgeStyle&quot;,&quot;elbow&quot;:&quot;vertical&quot;,&quot;curved&quot;:0,&quot;rounded&quot;:0};" vertex="1" parent="o_1Lcf5PRjtZEdGYq-Mj-3">
          <mxGeometry x="45" y="80" width="10" height="300" as="geometry" />
        </mxCell>
        <mxCell id="o_1Lcf5PRjtZEdGYq-Mj-5" value=":Usuarios" style="shape=umlLifeline;perimeter=lifelinePerimeter;whiteSpace=wrap;html=1;container=0;dropTarget=0;collapsible=0;recursiveResize=0;outlineConnect=0;portConstraint=eastwest;newEdgeStyle={&quot;edgeStyle&quot;:&quot;elbowEdgeStyle&quot;,&quot;elbow&quot;:&quot;vertical&quot;,&quot;curved&quot;:0,&quot;rounded&quot;:0};" vertex="1" parent="1">
          <mxGeometry x="800" y="40" width="100" height="350" as="geometry" />
        </mxCell>
        <mxCell id="o_1Lcf5PRjtZEdGYq-Mj-6" value="" style="html=1;points=[];perimeter=orthogonalPerimeter;outlineConnect=0;targetShapes=umlLifeline;portConstraint=eastwest;newEdgeStyle={&quot;edgeStyle&quot;:&quot;elbowEdgeStyle&quot;,&quot;elbow&quot;:&quot;vertical&quot;,&quot;curved&quot;:0,&quot;rounded&quot;:0};" vertex="1" parent="o_1Lcf5PRjtZEdGYq-Mj-5">
          <mxGeometry x="45" y="80" width="10" height="270" as="geometry" />
        </mxCell>
        <mxCell id="o_1Lcf5PRjtZEdGYq-Mj-12" value="Solicitar usuario()" style="html=1;verticalAlign=bottom;endArrow=block;edgeStyle=elbowEdgeStyle;elbow=vertical;curved=0;rounded=0;" edge="1" parent="1" source="aM9ryv3xv72pqoxQDRHE-5" target="o_1Lcf5PRjtZEdGYq-Mj-3">
          <mxGeometry relative="1" as="geometry">
            <mxPoint x="440" y="140" as="sourcePoint" />
            <Array as="points">
              <mxPoint x="535" y="140" />
            </Array>
            <mxPoint x="620" y="140" as="targetPoint" />
            <mxPoint as="offset" />
          </mxGeometry>
        </mxCell>
        <mxCell id="o_1Lcf5PRjtZEdGYq-Mj-13" value="Busca usuarios()" style="html=1;verticalAlign=bottom;endArrow=block;edgeStyle=elbowEdgeStyle;elbow=vertical;curved=0;rounded=0;" edge="1" parent="1" target="o_1Lcf5PRjtZEdGYq-Mj-5">
          <mxGeometry relative="1" as="geometry">
            <mxPoint x="640" y="150" as="sourcePoint" />
            <Array as="points">
              <mxPoint x="725" y="150" />
            </Array>
            <mxPoint x="810" y="150" as="targetPoint" />
            <mxPoint as="offset" />
          </mxGeometry>
        </mxCell>
        <mxCell id="o_1Lcf5PRjtZEdGYq-Mj-17" value="Devuelve usuarios" style="html=1;verticalAlign=bottom;endArrow=open;dashed=1;endSize=8;edgeStyle=elbowEdgeStyle;elbow=vertical;curved=0;rounded=0;" edge="1" parent="1" target="o_1Lcf5PRjtZEdGYq-Mj-3">
          <mxGeometry relative="1" as="geometry">
            <mxPoint x="680" y="180" as="targetPoint" />
            <Array as="points">
              <mxPoint x="775" y="180" />
            </Array>
            <mxPoint x="850" y="180" as="sourcePoint" />
          </mxGeometry>
        </mxCell>
        <mxCell id="o_1Lcf5PRjtZEdGYq-Mj-18" value="Devuelve usuarios" style="html=1;verticalAlign=bottom;endArrow=open;dashed=1;endSize=8;edgeStyle=elbowEdgeStyle;elbow=vertical;curved=0;rounded=0;" edge="1" parent="1" target="aM9ryv3xv72pqoxQDRHE-5">
          <mxGeometry relative="1" as="geometry">
            <mxPoint x="440" y="200" as="targetPoint" />
            <Array as="points">
              <mxPoint x="575" y="200" />
            </Array>
            <mxPoint x="640" y="200" as="sourcePoint" />
          </mxGeometry>
        </mxCell>
        <mxCell id="o_1Lcf5PRjtZEdGYq-Mj-20" value="Devuelve usuarios" style="html=1;verticalAlign=bottom;endArrow=open;dashed=1;endSize=8;edgeStyle=elbowEdgeStyle;elbow=vertical;curved=0;rounded=0;" edge="1" parent="1">
          <mxGeometry relative="1" as="geometry">
            <mxPoint x="100" y="240" as="targetPoint" />
            <Array as="points">
              <mxPoint x="225" y="240" />
            </Array>
            <mxPoint x="270" y="240" as="sourcePoint" />
          </mxGeometry>
        </mxCell>
        <mxCell id="o_1Lcf5PRjtZEdGYq-Mj-21" value="Enviar solicitud()" style="html=1;verticalAlign=bottom;endArrow=block;edgeStyle=elbowEdgeStyle;elbow=vertical;curved=0;rounded=0;" edge="1" parent="1">
          <mxGeometry relative="1" as="geometry">
            <mxPoint x="90" y="290" as="sourcePoint" />
            <Array as="points">
              <mxPoint x="175" y="290" />
            </Array>
            <mxPoint x="265" y="290" as="targetPoint" />
            <mxPoint as="offset" />
          </mxGeometry>
        </mxCell>
        <mxCell id="o_1Lcf5PRjtZEdGYq-Mj-22" value="Enviar solicitud()" style="html=1;verticalAlign=bottom;endArrow=block;edgeStyle=elbowEdgeStyle;elbow=vertical;curved=0;rounded=0;" edge="1" parent="1" target="o_1Lcf5PRjtZEdGYq-Mj-3">
          <mxGeometry relative="1" as="geometry">
            <mxPoint x="270" y="310" as="sourcePoint" />
            <Array as="points">
              <mxPoint x="355" y="310" />
            </Array>
            <mxPoint x="445" y="310" as="targetPoint" />
            <mxPoint as="offset" />
          </mxGeometry>
        </mxCell>
        <mxCell id="o_1Lcf5PRjtZEdGYq-Mj-25" value="Enviar solicitud()" style="html=1;verticalAlign=bottom;endArrow=block;edgeStyle=elbowEdgeStyle;elbow=vertical;curved=0;rounded=0;" edge="1" parent="1" target="o_1Lcf5PRjtZEdGYq-Mj-5">
          <mxGeometry relative="1" as="geometry">
            <mxPoint x="650" y="350" as="sourcePoint" />
            <Array as="points">
              <mxPoint x="735" y="350" />
            </Array>
            <mxPoint x="825" y="350" as="targetPoint" />
            <mxPoint as="offset" />
          </mxGeometry>
        </mxCell>
        <mxCell id="EpJdqrciycTiqIO7PXaG-1" value="Devuelve_mensaje_confirmacion()" style="html=1;verticalAlign=bottom;endArrow=open;dashed=1;endSize=8;edgeStyle=elbowEdgeStyle;elbow=vertical;curved=0;rounded=0;" edge="1" parent="1">
          <mxGeometry relative="1" as="geometry">
            <mxPoint x="640" y="380" as="targetPoint" />
            <Array as="points">
              <mxPoint x="775" y="380" />
            </Array>
            <mxPoint x="850" y="380" as="sourcePoint" />
          </mxGeometry>
        </mxCell>
        <mxCell id="EpJdqrciycTiqIO7PXaG-2" value="Devuelve_mensaje_confirmacion()" style="html=1;verticalAlign=bottom;endArrow=open;dashed=1;endSize=8;edgeStyle=elbowEdgeStyle;elbow=vertical;curved=0;rounded=0;" edge="1" parent="1" source="o_1Lcf5PRjtZEdGYq-Mj-4" target="aM9ryv3xv72pqoxQDRHE-5">
          <mxGeometry relative="1" as="geometry">
            <mxPoint x="290" y="390" as="targetPoint" />
            <Array as="points">
              <mxPoint x="440" y="410" />
              <mxPoint x="440" y="400" />
              <mxPoint x="560" y="390" />
              <mxPoint x="270" y="390" />
            </Array>
            <mxPoint x="661" y="389" as="sourcePoint" />
          </mxGeometry>
        </mxCell>
        <mxCell id="EpJdqrciycTiqIO7PXaG-5" value="Devuelve_mensaje_confirmacion()" style="html=1;verticalAlign=bottom;endArrow=open;dashed=1;endSize=8;edgeStyle=elbowEdgeStyle;elbow=vertical;curved=0;rounded=0;" edge="1" parent="1" target="aM9ryv3xv72pqoxQDRHE-2">
          <mxGeometry relative="1" as="geometry">
            <mxPoint x="-320" y="420" as="targetPoint" />
            <Array as="points">
              <mxPoint x="186" y="420" />
            </Array>
            <mxPoint x="261" y="420" as="sourcePoint" />
          </mxGeometry>
        </mxCell>
      </root>
    </mxGraphModel>
  </diagram>
</mxfile>
